<svg viewBox="0 0 78 50" xmlns="http://www.w3.org/2000/svg" fill="currentColor">
<path d="M65.5408 49.5247H77.8557V39.0018H65.509C57.7127 39.0018 51.3643 32.6306 51.3643 24.8063C51.3643 16.982 57.7127 10.6107 65.509 10.6107H77.8557V0.071888H65.5408C51.953 0.071888 40.9109 11.1696 40.9109 24.7903C40.9109 38.411 51.953 49.5247 65.5408 49.5247Z" />
<path d="M12.4592 49.5247H0.144226V39.0018H12.491C20.2873 39.0018 26.6357 32.6306 26.6357 24.8063C26.6357 16.982 20.2873 10.6107 12.491 10.6107H0.144226V0.071888H12.4592C26.047 0.071888 37.089 11.1696 37.089 24.7903C37.089 38.411 26.047 49.5247 12.4592 49.5247Z" />
</svg>
